Coordinates
version=1
nRows=10
nColumns=34
inDegrees=yes

Units are S.I. units (second, meters, Newtons, ...)
If the header above contains a line with 'inDegrees', this indicates whether rotational values are in degrees (yes) or radians (no).

endheader
time	pelvis_tilt	pelvis_list	pelvis_rotation	pelvis_tx	pelvis_ty	pelvis_tz	hip_flexion_r	hip_adduction_r	hip_rotation_r	knee_angle_r	ankle_angle_r	subtalar_angle_r	mtp_angle_r	hip_flexion_l	hip_adduction_l	hip_rotation_l	knee_angle_l	ankle_angle_l	subtalar_angle_l	mtp_angle_l	lumbar_extension	lumbar_bending	lumbar_rotation	arm_flex_r	arm_add_r	arm_rot_r	elbow_flex_r	pro_sup_r	arm_flex_l	arm_add_l	arm_rot_l	elbow_flex_l	pro_sup_l
      4.73333330	    -15.74885227	     -1.58429144	      4.46381100	      3.46179742	      0.91290840	     -0.08179260	     -3.16193475	      0.34293176	    -19.70091572	     13.60761711	    -13.68935482	    -20.06618888	      0.00000000	      3.98527849	     -2.03635949	     -7.43535371	      4.29135637	     18.11651216	      7.61746748	      0.00000000	     13.65439742	     -1.35603741	    -19.99954234	     -5.11665717	    -11.55116258	     20.29427111	     40.95218943	     89.06211373	    -34.02669909	      2.42441192	    -26.13567260	     55.87139109	    100.27947818
      4.75000000	    -15.61276442	     -2.51536633	      5.04755400	      3.46869952	      0.91306616	     -0.08466781	     -3.18875054	      1.24106373	    -18.92490318	     13.81933588	    -13.05385065	    -19.99827894	      0.00000000	      2.86817094	     -2.93502683	     -7.50299350	      3.43399234	     18.17511712	      8.91056596	      0.00000000	     14.05628541	     -0.31756618	    -18.69598601	     -9.25650855	    -11.30356599	     14.44617387	     42.94976710	     89.53214072	    -33.99024041	      1.84622136	    -26.35225143	     58.17366399	    102.65531204
      4.76666670	    -15.47370557	     -3.34555175	      5.85624378	      3.47622603	      0.91409700	     -0.08767511	     -3.28579359	      2.06787862	    -18.73432680	     13.63423806	     -8.53547171	    -17.72476613	      0.00000000	      1.76551998	     -3.67098665	     -6.95341908	      2.68735850	     18.11668830	      8.84578944	      0.00000000	     14.48641225	      0.87492761	    -16.94830058	    -13.55100959	    -10.69753768	      7.94634408	     44.58563893	     91.49028720	    -33.00055708	      0.29068366	    -23.79014794	     57.78324088	    105.60531684
      4.78333330	    -15.29194645	     -4.45528502	      6.33678096	      3.47621878	      0.91823476	     -0.08814476	     -3.09452487	      3.56694389	    -16.72349000	     12.97251371	     -5.52350703	    -19.20207239	      0.00000000	      0.99615428	     -4.80487729	     -6.92395721	      1.77840118	     17.57914015	      9.23557251	      0.00000000	     14.58710279	      1.94782167	    -17.48907250	    -15.01357876	    -10.77966502	      7.37721874	     44.21472215	     91.69611730	    -32.89023213	     -0.01408407	    -23.67532139	     58.19987646	    105.75061252
      4.80000000	    -15.05387607	     -5.61424910	      7.51308879	      3.48734198	      0.91529494	     -0.09316348	     -3.01501754	      4.84499498	    -15.91806002	     13.05065941	     -3.69039645	    -20.16114069	      0.00000000	      0.15594373	     -5.92165978	     -6.53784383	      0.92554036	     16.95871587	      9.91907013	      0.00000000	     14.85811188	      3.04256413	    -18.41128115	    -16.40753057	    -10.97799335	      7.16016109	     43.57816351	     91.73783765	    -32.41576440	     -0.31669936	    -23.64232149	     58.62440175	    105.79756684
      4.81666670	    -14.36023314	     -6.62847218	      8.33124627	      3.49207868	      0.91545045	     -0.09658161	     -2.77409967	      5.87925347	    -14.33816748	     14.15623406	      1.09265733	    -20.40241666	      0.00000000	     -1.04037511	     -6.99035042	     -7.64877307	      0.39596977	     17.55798662	     12.31803770	      0.00000000	     14.40134245	      4.19022098	    -18.50569260	    -17.25553964	     -9.87226525	      3.20973423	     41.53103465	     92.14416094	    -31.63130603	     -1.21465013	    -22.09116226	     59.34565541	    106.55811821
      4.83333330	    -13.72352398	     -7.58403674	      9.73372409	      3.50669068	      0.91438063	     -0.10212421	     -2.50014752	      6.79389794	    -13.80383608	     15.09950670	      3.37517620	    -22.07214877	      0.00000000	     -2.07209492	     -7.99381493	     -7.02883761	      0.00000000	     17.71446317	     12.85453899	      0.00000000	     14.25680105	      5.12869408	    -19.48212623	    -18.34717611	     -9.80435911	      2.46307757	     41.06823519	     92.29927335	    -30.83498942	     -1.49329838	    -21.89470078	     59.06186354	    106.70486537
      4.85000000	    -13.07072892	     -8.68402040	     10.54602560	      3.51163305	      0.91740528	     -0.10464095	     -1.63168522	      7.87583545	    -12.82791978	     16.45766326	      4.49644362	    -25.06985743	      0.00000000	     -3.04627418	     -9.22883175	     -7.49018877	      0.00000000	     18.22741951	     13.53151036	      0.00000000	     14.08216171	      7.03155704	    -16.46809979	    -21.48960149	     -6.79177595	     -8.65220978	     41.22985555	     96.75842139	    -27.71385635	     -3.59089309	    -18.17363341	     56.97727880	    108.95085615
      4.86666670	    -12.19947541	     -9.47994793	     11.36587910	      3.51592752	      0.92055776	     -0.10767689	     -0.97584837	      8.55867678	    -12.14311387	     17.54565425	      6.50547661	    -26.24129825	      0.00000000	     -3.74890867	    -10.15452120	     -7.21566219	      0.19027013	     17.90329123	     13.48273958	      0.00000000	     13.64951179	      8.27801385	    -17.94125341	    -21.86169432	     -7.04122395	     -9.22621913	     41.89060514	     97.60038800	    -26.98449802	     -3.77635367	    -17.28638183	     55.05907018	    109.06169963
      4.88333330	    -11.94142883	    -10.00576084	     11.75587048	      3.52839566	      0.92342743	     -0.10929486	     -0.20113048	      8.85122896	    -12.10515891	     17.92377899	      7.00578417	    -26.83708769	      0.00000000	     -4.21493721	    -10.77098770	     -7.18400569	      0.46941562	     17.75707020	     13.66243005	      0.00000000	     13.63159165	      8.89869467	    -18.43325337	    -22.23318897	     -6.97832619	     -9.32318795	     41.61430685	     97.66263571	    -26.50226277	     -3.81915569	    -17.23592694	     55.29453141	    109.05806541
